<svg width="25" height="25" viewBox="0 0 25 25" fill="none" xmlns="http://www.w3.org/2000/svg">
<g clip-path="url(#clip0_99_77)">
<path fill-rule="evenodd" clip-rule="evenodd" d="M12.6309 0.5C6.00086 0.5 0.630859 5.87 0.630859 12.5C0.630859 17.81 4.06586 22.295 8.83586 23.885C9.43586 23.99 9.66086 23.63 9.66086 23.315C9.66086 23.03 9.64586 22.085 9.64586 21.08C6.63086 21.635 5.85086 20.345 5.61086 19.67C5.47586 19.325 4.89086 18.26 4.38086 17.975C3.96086 17.75 3.36086 17.195 4.36586 17.18C5.31086 17.165 5.98586 18.05 6.21086 18.41C7.29086 20.225 9.01586 19.715 9.70586 19.4C9.81086 18.62 10.1259 18.095 10.4709 17.795C7.80086 17.495 5.01086 16.46 5.01086 11.87C5.01086 10.565 5.47586 9.485 6.24086 8.645C6.12086 8.345 5.70086 7.115 6.36086 5.465C6.36086 5.465 7.36586 5.15 9.66086 6.695C10.6209 6.425 11.6409 6.29 12.6609 6.29C13.6809 6.29 14.7009 6.425 15.6609 6.695C17.9559 5.135 18.9609 5.465 18.9609 5.465C19.6209 7.115 19.2009 8.345 19.0809 8.645C19.8459 9.485 20.3109 10.55 20.3109 11.87C20.3109 16.475 17.5059 17.495 14.8359 17.795C15.2709 18.17 15.6459 18.89 15.6459 20.015C15.6459 21.62 15.6309 22.91 15.6309 23.315C15.6309 23.63 15.8559 24.005 16.4559 23.885C21.1959 22.295 24.6309 17.795 24.6309 12.5C24.6309 5.87 19.2609 0.5 12.6309 0.5Z" fill="white"/>
</g>
<defs>
<clipPath id="clip0_99_77">
<rect width="24" height="24" fill="white" transform="translate(0.630859 0.5)"/>
</clipPath>
</defs>
</svg>
