<svg width="25" height="25" viewBox="0 0 25 25" fill="none" xmlns="http://www.w3.org/2000/svg">
<g clip-path="url(#clip0_99_79)">
<path d="M21.3387 20.883H17.7941V15.332C17.7941 14.0083 17.7705 12.3043 15.9505 12.3043C14.1044 12.3043 13.8219 13.7465 13.8219 15.2356V20.8826H10.2773V9.46747H13.6801V11.0275H13.7277C14.0683 10.4452 14.5604 9.96623 15.1516 9.64152C15.7429 9.31679 16.4111 9.15853 17.0852 9.18353C20.6778 9.18353 21.3402 11.5466 21.3402 14.6208L21.3387 20.883ZM6.27778 7.9071C5.87096 7.90717 5.47323 7.78662 5.13494 7.56065C4.79661 7.33468 4.53291 7.01349 4.37717 6.63765C4.22139 6.26181 4.18059 5.84823 4.25989 5.4492C4.33917 5.05018 4.53501 4.6836 4.82264 4.39586C5.11027 4.10815 5.47673 3.91218 5.87576 3.83274C6.27475 3.75329 6.68837 3.79396 7.06424 3.94958C7.44016 4.1052 7.76146 4.3688 7.98754 4.70701C8.21362 5.04523 8.33432 5.44293 8.3344 5.84975C8.33443 6.11987 8.2813 6.38738 8.17795 6.63694C8.07464 6.88654 7.92315 7.11333 7.73218 7.30437C7.54121 7.49541 7.31447 7.64698 7.06494 7.7504C6.81538 7.85382 6.54791 7.90706 6.27778 7.9071ZM8.05009 20.883H4.50178V9.46747H8.05009V20.883ZM23.1058 0.501446H2.72062C2.25793 0.496225 1.81209 0.674909 1.48108 0.998234C1.15007 1.32156 0.960969 1.76307 0.955322 2.22575V22.6955C0.960776 23.1584 1.14976 23.6003 1.48076 23.9239C1.81176 24.2476 2.2577 24.4266 2.72062 24.4217H23.1058C23.5697 24.4275 24.0168 24.249 24.3491 23.9253C24.6815 23.6017 24.8717 23.1594 24.8781 22.6955V2.22428C24.8715 1.76068 24.6812 1.31866 24.3489 0.995346C24.0165 0.672029 23.5694 0.493855 23.1058 0.499969V0.501446Z" fill="white"/>
</g>
<defs>
<clipPath id="clip0_99_79">
<rect width="24.3692" height="24" fill="white" transform="translate(0.630859 0.5)"/>
</clipPath>
</defs>
</svg>
